<svg xmlns="http://www.w3.org/2000/svg" width="1480" height="980" viewBox="0 0 1480 980" role="img" aria-labelledby="title desc">
  <title id="title">Tellar Architecture Overview</title>
  <desc id="desc">High-level architecture diagram showing Discord inputs, runtime orchestration, routing, execution, tools, and filesystem-backed state.</desc>
  <defs>
    <style>
      .bg { fill: #f6f2e8; }
      .title { font: 700 30px "Helvetica", "Arial", sans-serif; fill: #1d2a33; }
      .subtitle { font: 400 14px "Helvetica", "Arial", sans-serif; fill: #4d5b63; }
      .section { font: 700 18px "Helvetica", "Arial", sans-serif; fill: #1d2a33; }
      .label { font: 700 15px "Helvetica", "Arial", sans-serif; fill: #152028; }
      .body { font: 400 13px "Helvetica", "Arial", sans-serif; fill: #314049; }
      .small { font: 400 12px "Helvetica", "Arial", sans-serif; fill: #4d5b63; }
      .box { fill: #fffdf8; stroke: #284756; stroke-width: 2; rx: 16; ry: 16; }
      .boxAlt { fill: #eef6f3; stroke: #2f6b5b; stroke-width: 2; rx: 16; ry: 16; }
      .boxWarm { fill: #fff4e8; stroke: #9a5a2d; stroke-width: 2; rx: 16; ry: 16; }
      .boxCool { fill: #edf4fb; stroke: #356489; stroke-width: 2; rx: 16; ry: 16; }
      .lane { fill: none; stroke: #c9d4d9; stroke-width: 2; stroke-dasharray: 8 8; rx: 20; ry: 20; }
      .arrow { stroke: #3e5561; stroke-width: 3; fill: none; marker-end: url(#arrow); }
      .arrowAlt { stroke: #2f6b5b; stroke-width: 3; fill: none; marker-end: url(#arrowGreen); }
      .arrowWarm { stroke: #9a5a2d; stroke-width: 3; fill: none; marker-end: url(#arrowWarm); }
    </style>
    <marker id="arrow" markerWidth="10" markerHeight="10" refX="8" refY="5" orient="auto">
      <path d="M0,0 L10,5 L0,10 z" fill="#3e5561"/>
    </marker>
    <marker id="arrowGreen" markerWidth="10" markerHeight="10" refX="8" refY="5" orient="auto">
      <path d="M0,0 L10,5 L0,10 z" fill="#2f6b5b"/>
    </marker>
    <marker id="arrowWarm" markerWidth="10" markerHeight="10" refX="8" refY="5" orient="auto">
      <path d="M0,0 L10,5 L0,10 z" fill="#9a5a2d"/>
    </marker>
  </defs>

  <rect class="bg" x="0" y="0" width="1480" height="980"/>
  <text class="title" x="48" y="52">Tellar Architecture Overview</text>
  <text class="subtitle" x="48" y="78">Reactive blackboard runtime with explicit routing, plan-first execution, and filesystem-backed memory.</text>

  <rect class="lane" x="36" y="110" width="1408" height="236"/>
  <text class="section" x="52" y="138">Ingress and Orchestration</text>

  <rect class="boxCool" x="60" y="168" width="220" height="120"/>
  <text class="label" x="82" y="196">Discord / Watch Sources</text>
  <text class="body" x="82" y="220">Discord messages, thread events,</text>
  <text class="body" x="82" y="240">ritual files, and watch signals</text>
  <text class="small" x="82" y="268">discord/mod.rs, watch.rs</text>

  <rect class="box" x="350" y="168" width="240" height="120"/>
  <text class="label" x="372" y="196">Watch + Rhythm</text>
  <text class="body" x="372" y="220">Trigger thread execution</text>
  <text class="body" x="372" y="240">from file and ritual events</text>
  <text class="small" x="372" y="268">watch.rs, rhythm.rs</text>

  <rect class="box" x="660" y="168" width="250" height="120"/>
  <text class="label" x="682" y="196">Thread Runtime</text>
  <text class="body" x="682" y="220">Loads blackboard files, runs</text>
  <text class="body" x="682" y="240">plan-first sessions, persists output</text>
  <text class="small" x="682" y="268">thread/mod.rs, thread/store.rs</text>

  <rect class="boxAlt" x="980" y="168" width="410" height="120"/>
  <text class="label" x="1002" y="196">Rhythm Scheduler</text>
  <text class="body" x="1002" y="220">Schedules ritual injections and keeps</text>
  <text class="body" x="1002" y="240">persistent intent pulsing over time.</text>
  <text class="small" x="1002" y="268">rhythm.rs</text>

  <path class="arrow" d="M280 228 H350"/>
  <path class="arrow" d="M590 228 H660"/>
  <path class="arrow" d="M910 228 H980"/>

  <rect class="lane" x="36" y="378" width="1408" height="256"/>
  <text class="section" x="52" y="406">Conversation Decision Layer</text>

  <rect class="box" x="60" y="442" width="240" height="136"/>
  <text class="label" x="82" y="470">Session Assembly</text>
  <text class="body" x="82" y="494">Builds system prompt and request</text>
  <text class="body" x="82" y="514">context for the active workset</text>
  <text class="small" x="82" y="542">session.rs</text>
  <text class="small" x="82" y="562">prompt_context.rs, input.rs</text>

  <rect class="boxCool" x="360" y="442" width="250" height="136"/>
  <text class="label" x="382" y="470">Router and Validation</text>
  <text class="body" x="382" y="494">Chooses Plan / NeedsInput / Reject</text>
  <text class="body" x="382" y="514">and validates executable steps</text>
  <text class="small" x="382" y="542">router.rs</text>
  <text class="small" x="382" y="562">routing_catalog.rs</text>

  <rect class="boxWarm" x="670" y="442" width="250" height="136"/>
  <text class="label" x="692" y="470">Conversation Policy</text>
  <text class="body" x="692" y="494">Applies guardrails and converts</text>
  <text class="body" x="692" y="514">low confidence into clarification</text>
  <text class="small" x="692" y="542">task_policy.rs</text>

  <rect class="box" x="980" y="442" width="410" height="136"/>
  <text class="label" x="1002" y="470">Conversation Contract</text>
  <text class="body" x="1002" y="494">Shared types for route results, execution outcomes,</text>
  <text class="body" x="1002" y="514">trace views, final states, and loop reports.</text>
  <text class="small" x="1002" y="542">execution_contract.rs, task_response.rs</text>

  <path class="arrow" d="M300 510 H360"/>
  <path class="arrow" d="M610 510 H670"/>
  <path class="arrow" d="M920 510 H980"/>

  <rect class="lane" x="36" y="666" width="1408" height="254"/>
  <text class="section" x="52" y="694">Execution and State Layer</text>

  <rect class="box" x="60" y="730" width="250" height="140"/>
  <text class="label" x="82" y="758">Plan Executor</text>
  <text class="body" x="82" y="782">Deterministic finite plan runner</text>
  <text class="body" x="82" y="802">for Reject / CallTool / Respond</text>
  <text class="body" x="82" y="822">and AskForMissing steps</text>
  <text class="small" x="82" y="850">plan_executor.rs</text>

  <rect class="boxAlt" x="370" y="730" width="250" height="140"/>
  <text class="label" x="392" y="758">Runtime Glue</text>
  <text class="body" x="392" y="782">Scheduling, watch orchestration,</text>
  <text class="body" x="392" y="802">and thread lifecycle coordination</text>
  <text class="small" x="392" y="850">main.rs, watch.rs, rhythm.rs</text>

  <rect class="boxCool" x="680" y="730" width="250" height="140"/>
  <text class="label" x="702" y="758">LLM Adapter</text>
  <text class="body" x="702" y="782">Model turn generation and</text>
  <text class="body" x="702" y="802">tool-call / narrative decoding</text>
  <text class="small" x="702" y="850">llm.rs</text>

  <rect class="boxWarm" x="990" y="730" width="200" height="140"/>
  <text class="label" x="1012" y="758">Tool Runtime</text>
  <text class="body" x="1012" y="782">Core tools, delivery tools,</text>
  <text class="body" x="1012" y="802">skill dispatch, safety checks</text>
  <text class="small" x="1012" y="850">tools.rs, delivery.rs, skills.rs</text>

  <rect class="boxCool" x="1240" y="730" width="170" height="140"/>
  <text class="label" x="1262" y="758">Guild State</text>
  <text class="body" x="1262" y="782">Blackboards,</text>
  <text class="body" x="1262" y="802">KNOWLEDGE,</text>
  <text class="body" x="1262" y="822">history, outbox</text>
  <text class="small" x="1262" y="850">filesystem</text>

  <path class="arrowWarm" d="M795 578 V690 H185 V730"/>
  <text class="small" x="626" y="676">Plan route</text>
  <path class="arrow" d="M1185 288 V706 H495 V730"/>
  <text class="small" x="1082" y="674">scheduling + orchestration</text>

  <path class="arrow" d="M310 800 H370"/>
  <path class="arrow" d="M620 800 H680"/>
  <path class="arrow" d="M930 800 H990"/>
  <path class="arrow" d="M1190 800 H1240"/>
  <path class="arrow" d="M1240 770 H1140"/>
  <text class="small" x="1146" y="752">read / write</text>

  <path class="arrow" d="M805 730 V640"/>
  <path class="arrow" d="M805 442 V378"/>
  <path class="arrow" d="M805 168 V110"/>
  <text class="small" x="820" y="598">shared model + control flow</text>

  <text class="subtitle" x="48" y="954">Generated as a static documentation asset. Update when routing, execution, or storage boundaries change.</text>
</svg>
